<svg xmlns="http://www.w3.org/2000/svg" width="176" height="64" viewBox="0 0 176 64" fill="none">
  <mask id="mask0_4140_7167" style="mask-type:alpha" maskUnits="userSpaceDorase" x="0" y="0" width="176" height="64">
    <path d="M30.9375 5.625V2.28516C37.6875 2.28516 40.3125 0.761719 40.7812 0H43.5938V29.5312L35.1562 39.375V7.03125C35.1562 6.04658 36.9518 4.99008 37.714 4.42753C36.3289 5.37911 32.6907 5.625 30.9375 5.625Z" fill="#8AA8FF"/>
    <path fill-rule="evenodd" clip-rule="evenodd" d="M167.344 54.4328C163.739 59.8217 158.15 63.2812 151.875 63.2812C141.002 63.2812 132.188 52.8929 132.188 40.0781C132.188 27.2634 141.002 16.875 151.875 16.875C159.346 16.875 164.283 19.5034 167.344 23.7468V17.6223L175.781 17.6752V61.9282L167.344 61.8752V54.4328ZM167.344 39.3749C167.344 48.6947 162.454 55.4589 154.687 55.4589C146.921 55.4589 140.625 48.6947 140.625 39.3749C140.625 30.0551 146.921 23.9062 154.687 23.9062C162.454 23.9062 167.344 30.0551 167.344 39.3749Z" fill="#2F6EF6"/>
    <path fill-rule="evenodd" clip-rule="evenodd" d="M112.5 25.3118C115.781 21.093 124.031 13.7809 130.781 18.2808L127.969 26.7183C124.687 25.3121 117 24.7496 112.5 33.7491V61.8744H104.062V17.7094L112.5 17.7094V25.3118Z" fill="#2F6EF6"/>
    <path fill-rule="evenodd" clip-rule="evenodd" d="M21.0938 63.2812C10.2206 63.2812 0 52.8929 0 40.0781C0 27.2634 8.81439 16.875 19.6875 16.875C24.3849 16.875 28.0803 17.914 30.9375 19.7401V27.2519C28.8027 25.1072 25.9323 23.9062 22.5 23.9062C14.7335 23.9062 8.4375 30.7583 8.4375 40.0781C8.4375 48.2421 12.6563 53.4375 19.6875 55.1549C29.9099 57.6517 43.0012 44.2889 48.3283 36.6375C52.2236 31.0428 56.4124 25.0264 62.6647 21.121C66.4942 18.4465 71.1044 16.875 75.9375 16.875C88.4177 16.875 97.4707 27.8512 97.4707 40.0781C97.4707 52.8929 88.3639 63.2812 75.9375 63.2812C66.1408 63.2812 57.2603 56.8245 53.9403 47.8125H62.7155C65.372 52.2239 70.077 54.8437 75.1465 54.8437C82.913 54.8437 88.5938 48.6948 88.5938 39.375C88.5938 30.5681 81.5625 25.3125 75.9375 25.3125C70.3125 25.3125 66.0938 25.3125 53.4375 43.5937C42.5465 57.6562 32.7832 63.2812 21.0938 63.2812Z" fill="#2F6EF6"/>
  </mask>
  <g mask="url(#mask0_4140_7167)">
    <rect x="-77" y="-64" width="320" height="163" fill="#0C64E9"/>
  </g>
</svg>
