<svg width="94" height="34" viewBox="0 0 94 34" fill="none" xmlns="http://www.w3.org/2000/svg">
<path d="M16.5 3V1.21875C20.1 1.21875 21.5 0.40625 21.75 0H23.25V15.75L18.75 21V3.75C18.75 3.22484 19.7076 2.66138 20.1141 2.36135C19.3754 2.86886 17.435 3 16.5 3Z" fill="#62A6F9"/>
<path fill-rule="evenodd" clipRule="evenodd" d="M89.2499 29.031C87.3272 31.905 84.3464 33.75 81 33.75C75.201 33.75 70.5 28.2095 70.5 21.375C70.5 14.5405 75.201 9 81 9C84.9846 9 87.6173 10.4017 89.2499 12.6648V9.39844L93.7499 9.42669V33.0283L89.2499 33V29.031ZM89.2499 21C89.2499 25.9706 86.6421 29.5781 82.4999 29.5781C78.3578 29.5781 74.9999 25.9706 74.9999 21C74.9999 16.0294 78.3578 12.75 82.4999 12.75C86.6421 12.75 89.2499 16.0294 89.2499 21Z" fill="#0C6CE9"/>
<path fill-rule="evenodd" clipRule="evenodd" d="M59.9999 13.5005C61.7499 11.2505 66.1499 7.3505 69.7499 9.7505L68.2499 14.2505C66.4999 13.5005 62.3999 13.2005 59.9999 18.0005V13.5005ZM55.4999 9.44531V33H59.9999V9.44532L55.4999 9.44531Z" fill="#0C6CE9"/>
<path fill-rule="evenodd" clipRule="evenodd" d="M11.25 33.75C5.45101 33.75 0 28.2095 0 21.375C0 14.5405 4.70101 9 10.5 9C13.0053 9 14.9761 9.55412 16.5 10.5281V14.5344C15.3614 13.3905 13.8305 12.75 12 12.75C7.85786 12.75 4.5 16.4044 4.5 21.375C4.5 25.7291 6.75 28.5 10.5 29.4159C15.9519 30.7476 22.934 23.6207 25.7751 19.54C27.8526 16.5561 30.0866 13.3474 33.4212 11.2645C35.4636 9.83812 37.9223 9 40.5 9C47.1561 9 51.9844 14.8539 51.9844 21.375C51.9844 28.2095 47.1274 33.75 40.5 33.75C35.2751 33.75 30.5388 30.3064 28.7682 25.5H33.4483C34.865 27.8528 37.3744 29.25 40.0781 29.25C44.2203 29.25 47.25 25.9706 47.25 21C47.25 16.303 43.5 13.5 40.5 13.5C37.5 13.5 35.25 13.5 28.5 23.25C22.6915 30.75 17.4844 33.75 11.25 33.75Z" fill="#0C6CE9"/>
</svg>
